HIERARCHY
ROOT Hips
{
  OFFSET 5.84602e-005 68.8428 3.50346
  CHANNELS 6 Xposition Yposition Zposition Zrotation Xrotation Yrotation
  JOINT Spine
  {
    OFFSET 0 8.597 -4.6522
    CHANNELS 3 Zrotation Xrotation Yrotation
    JOINT Spine1
    {
      OFFSET 0 7.8454 0.4098
      CHANNELS 3 Zrotation Xrotation Yrotation
      JOINT Spine2
      {
        OFFSET 0 9.7078 -2.1609
        CHANNELS 3 Zrotation Xrotation Yrotation
        JOINT Neck
        {
          OFFSET 0 21.8761 -0.4549
          CHANNELS 3 Zrotation Xrotation Yrotation
          JOINT Head
          {
            OFFSET 0 12.3537 3.3602
            CHANNELS 3 Zrotation Xrotation Yrotation
            End Site
            {
              OFFSET 0.0001 18.9506 0.5657
            }
          }
        }
        JOINT LeftShoulder
        {
          OFFSET 2.2086 21.1115 7.2329
          CHANNELS 3 Zrotation Xrotation Yrotation
          JOINT LeftArm
          {
            OFFSET 13.1193 3.0282 -4.8998
            CHANNELS 3 Zrotation Xrotation Yrotation
            JOINT LeftForeArm
            {
              OFFSET 27.4081 -0.0973053 -0.2375
              CHANNELS 3 Zrotation Xrotation Yrotation
              JOINT LeftHand
              {
                OFFSET 22.8641 0.0662994 -0.1369
                CHANNELS 3 Zrotation Xrotation Yrotation
                JOINT LeftHandIndex1
                {
                  OFFSET 8.8614 0.775009 2.4612
                  CHANNELS 3 Zrotation Xrotation Yrotation
                  JOINT LeftHandIndex2
                  {
                    OFFSET 3.3146 -0.808304 0.5841
                    CHANNELS 3 Zrotation Xrotation Yrotation
                    JOINT LeftHandIndex3
                    {
                      OFFSET 2.2628 -0.552002 0.3989
                      CHANNELS 3 Zrotation Xrotation Yrotation
                      End Site
                      {
                        OFFSET 1.6102 -0.4807 0.2612
                      }
                    }
                  }
                }
                JOINT LeftHandMiddle1
                {
                  OFFSET 8.9937 0.895004 0.2143
                  CHANNELS 3 Zrotation Xrotation Yrotation
                  JOINT LeftHandMiddle2
                  {
                    OFFSET 4.0984 0.0113983 -0.0242
                    CHANNELS 3 Zrotation Xrotation Yrotation
                    JOINT LeftHandMiddle3
                    {
                      OFFSET 2.2716 0.00689697 -0.0138001
                      CHANNELS 3 Zrotation Xrotation Yrotation
                      End Site
                      {
                        OFFSET 2.0404 -0.1441 0.0027
                      }
                    }
                  }
                }
                JOINT LeftHandRing1
                {
                  OFFSET 8.5234 0.597198 -2.0164
                  CHANNELS 3 Zrotation Xrotation Yrotation
                  JOINT LeftHandRing2
                  {
                    OFFSET 3.7188 -0.188293 -0.2328
                    CHANNELS 3 Zrotation Xrotation Yrotation
                    JOINT LeftHandRing3
                    {
                      OFFSET 2.1191 -0.106598 -0.1332
                      CHANNELS 3 Zrotation Xrotation Yrotation
                      End Site
                      {
                        OFFSET 1.8737 -0.2304 -0.0886
                      }
                    }
                  }
                }
                JOINT LeftHandPinky1
                {
                  OFFSET 7.9094 -0.601089 -3.4825
                  CHANNELS 3 Zrotation Xrotation Yrotation
                  JOINT LeftHandPinky2
                  {
                    OFFSET 2.2874 -0.477005 -0.6314
                    CHANNELS 3 Zrotation Xrotation Yrotation
                    JOINT LeftHandPinky3
                    {
                      OFFSET 1.6774 -0.349396 -0.4633
                      CHANNELS 3 Zrotation Xrotation Yrotation
                      End Site
                      {
                        OFFSET 1.4888 -0.4091 -0.3416
                      }
                    }
                  }
                }
                JOINT LeftHandThumb1
                {
                  OFFSET 1.833 -1.3875 1.3896
                  CHANNELS 3 Zrotation Xrotation Yrotation
                  JOINT LeftHandThumb2
                  {
                    OFFSET 3.4129 -1.121 2.5732
                    CHANNELS 3 Zrotation Xrotation Yrotation
                    JOINT LeftHandThumb3
                    {
                      OFFSET 2.2474 -0.804199 1.6192
                      CHANNELS 3 Zrotation Xrotation Yrotation
                      End Site
                      {
                        OFFSET 1.6527 -0.5689 1.1317
                      }
                    }
                  }
                }
              }
            }
          }
        }
        JOINT RightShoulder
        {
          OFFSET -2.2086 21.1115 7.2329
          CHANNELS 3 Zrotation Xrotation Yrotation
          JOINT RightArm
          {
            OFFSET -13.1216 3.0287 -4.9007
            CHANNELS 3 Zrotation Xrotation Yrotation
            JOINT RightForeArm
            {
              OFFSET -27.4081 -0.0973053 -0.2375
              CHANNELS 3 Zrotation Xrotation Yrotation
              JOINT RightHand
              {
                OFFSET -22.8641 0.0664063 -0.1369
                CHANNELS 3 Zrotation Xrotation Yrotation
                JOINT RightHandIndex1
                {
                  OFFSET -8.8614 0.774994 2.4612
                  CHANNELS 3 Zrotation Xrotation Yrotation
                  JOINT RightHandIndex2
                  {
                    OFFSET -3.3146 -0.808304 0.5841
                    CHANNELS 3 Zrotation Xrotation Yrotation
                    JOINT RightHandIndex3
                    {
                      OFFSET -2.2628 -0.552002 0.3989
                      CHANNELS 3 Zrotation Xrotation Yrotation
                      End Site
                      {
                        OFFSET -1.6102 -0.4807 0.2612
                      }
                    }
                  }
                }
                JOINT RightHandMiddle1
                {
                  OFFSET -8.9937 0.894989 0.2143
                  CHANNELS 3 Zrotation Xrotation Yrotation
                  JOINT RightHandMiddle2
                  {
                    OFFSET -4.0984 0.0113983 -0.0242
                    CHANNELS 3 Zrotation Xrotation Yrotation
                    JOINT RightHandMiddle3
                    {
                      OFFSET -2.2716 0.00691223 -0.0138001
                      CHANNELS 3 Zrotation Xrotation Yrotation
                      End Site
                      {
                        OFFSET -2.0404 -0.1441 0.0027
                      }
                    }
                  }
                }
                JOINT RightHandRing1
                {
                  OFFSET -8.5234 0.597198 -2.0164
                  CHANNELS 3 Zrotation Xrotation Yrotation
                  JOINT RightHandRing2
                  {
                    OFFSET -3.7188 -0.188309 -0.2328
                    CHANNELS 3 Zrotation Xrotation Yrotation
                    JOINT RightHandRing3
                    {
                      OFFSET -2.1191 -0.106598 -0.1332
                      CHANNELS 3 Zrotation Xrotation Yrotation
                      End Site
                      {
                        OFFSET -1.8737 -0.2304 -0.0886
                      }
                    }
                  }
                }
                JOINT RightHandPinky1
                {
                  OFFSET -7.9094 -0.601105 -3.4825
                  CHANNELS 3 Zrotation Xrotation Yrotation
                  JOINT RightHandPinky2
                  {
                    OFFSET -2.2874 -0.477005 -0.6314
                    CHANNELS 3 Zrotation Xrotation Yrotation
                    JOINT RightHandPinky3
                    {
                      OFFSET -1.6774 -0.349396 -0.4633
                      CHANNELS 3 Zrotation Xrotation Yrotation
                      End Site
                      {
                        OFFSET -1.4888 -0.4091 -0.3416
                      }
                    }
                  }
                }
                JOINT RightHandThumb1
                {
                  OFFSET -1.833 -1.38751 1.3896
                  CHANNELS 3 Zrotation Xrotation Yrotation
                  JOINT RightHandThumb2
                  {
                    OFFSET -3.41299 -1.12099 2.5732
                    CHANNELS 3 Zrotation Xrotation Yrotation
                    JOINT RightHandThumb3
                    {
                      OFFSET -2.24741 -0.804108 1.6192
                      CHANNELS 3 Zrotation Xrotation Yrotation
                      End Site
                      {
                        OFFSET -1.6527 -0.5689 1.1317
                      }
                    }
                  }
                }
              }
            }
          }
        }
      }
    }
  }
  JOINT RightUpLeg
  {
    OFFSET -9.1966 3.8861 -0.7581
    CHANNELS 3 Zrotation Xrotation Yrotation
    JOINT RightLeg
    {
      OFFSET -0.7359 -41.0265 0
      CHANNELS 3 Zrotation Xrotation Yrotation
      JOINT RightFoot
      {
        OFFSET 0 -40.2855 0
        CHANNELS 3 Zrotation Xrotation Yrotation
        JOINT RightToeBase
        {
          OFFSET 0 -5.6122 11.7359
          CHANNELS 3 Zrotation Xrotation Yrotation
          End Site
          {
            OFFSET 0 0 7.8731
          }
        }
      }
    }
  }
  JOINT LeftUpLeg
  {
    OFFSET 9.1965 3.8864 -0.7581
    CHANNELS 3 Zrotation Xrotation Yrotation
    JOINT LeftLeg
    {
      OFFSET 0.7359 -41.0268 0
      CHANNELS 3 Zrotation Xrotation Yrotation
      JOINT LeftFoot
      {
        OFFSET 0 -40.2855 0
        CHANNELS 3 Zrotation Xrotation Yrotation
        JOINT LeftToeBase
        {
          OFFSET 0 -5.6122 11.7359
          CHANNELS 3 Zrotation Xrotation Yrotation
          End Site
          {
            OFFSET 0 0 7.8731
          }
        }
      }
    }
  }
}
MOTION
Frames:	6
Frame Time:	0.0333333
-1.30096 14.1284 8.00502 3.79811 -0.000326299 -90.0098 -0.308941 6.51115 -0.235603 -0.59658 13.0236 -0.439892 -0.596595 13.0236 -0.439862 2.83234 3.76592 -9.28144 2.64188 -36.2825 -6.35025 -19.6144 -2.84875 -12.5339 -6.84127 3.93069 -14.9793 -40.4913 -3.19984 -20.7597 39.2399 -12.608 -4.12573 -3.53113e-031 -6.36111e-015 -3.18055e-015 -1.27222e-014 -6.36111e-015 -0 -3.18055e-015 0 -0 -3.53113e-031 -6.36111e-015 -3.18055e-015 -0.0146113 -9.11232e-005 -5.64513e-007 -9.54166e-015 -6.36111e-015 -0 -3.53113e-031 -6.36111e-015 -3.18055e-015 -0.0187694 -0.00117662 5.31835e-005 -3.18055e-015 0 -3.18055e-015 -3.53113e-031 -6.36111e-015 -3.18055e-015 -0.0122725 -0.00324941 0.000679365 -8.82781e-032 -3.18055e-015 -1.59028e-015 -3.53113e-031 -6.36111e-015 -3.18055e-015 -1.27222e-014 -6.36111e-015 -0 -3.18055e-015 0 -0 16.3663 -4.27792 12.7665 44.8878 26.2491 -1.30142 -23.8908 -26.8599 24.0561 -25.2172 -3.77078 -16.1607 1.8838e-008 1.16955e-006 2.65106e-006 2.64834e-031 4.77083e-015 -3.18055e-015 -1.88381e-008 -1.16955e-006 -2.65106e-006 1.8838e-008 1.16955e-006 2.65106e-006 0.0149973 -9.106e-005 -3.64595e-006 6.36111e-015 -1.59028e-015 -0 1.8838e-008 1.16955e-006 2.65106e-006 0.0189847 -0.00119123 -5.88561e-005 -1.63132e-008 -1.17015e-006 -2.65087e-006 1.8838e-008 1.16955e-006 2.65106e-006 0.0122799 -0.00324806 -0.00067602 -2.20695e-031 3.97569e-015 3.18055e-015 1.8838e-008 1.16955e-006 2.65106e-006 2.64834e-031 4.77083e-015 -3.18055e-015 -1.88381e-008 -1.16955e-006 -2.65106e-006 -136.308 -54.6893 -148.308 -169.083 60.8258 167.26 -3.74153 -3.58908 -2.58741 -7.68287e-007 -9.06934e-009 -2.40758e-008 136.34 -54.699 148.327 169.154 60.8266 -167.334 3.75676 -3.59312 2.61732 -2.60018e-007 -3.48175e-008 9.45437e-006 
-1.32489 13.9672 8.00504 3.59813 -0.000295381 -90.0094 -0.310601 6.3288 -0.233995 -0.600575 12.6589 -0.437278 -0.600581 12.6589 -0.437255 2.81674 3.74864 -9.23449 2.13899 -36.4405 -6.67289 -19.8077 -2.56826 -12.2136 -6.84127 3.93069 -14.9793 -40.4913 -3.19984 -20.7597 38.9803 -11.9327 -3.93283 1.94688e-006 2.81456e-008 1.69122e-006 4.38152e-006 -1.53637e-006 -4.51334e-007 2.67922e-006 9.93851e-007 -5.42518e-007 1.94688e-006 2.81456e-008 1.69122e-006 -0.0146028 -9.17199e-005 -3.0943e-006 1.94912e-006 2.79442e-008 1.69123e-006 1.94688e-006 2.81456e-008 1.69122e-006 -0.0187254 -0.0011709 6.11632e-005 2.68037e-006 9.9401e-007 -5.42386e-007 1.94688e-006 2.81456e-008 1.69122e-006 -0.0122509 -0.0032399 0.000674257 2.67997e-006 9.94093e-007 -5.42529e-007 1.94688e-006 2.81456e-008 1.69122e-006 4.38152e-006 -1.53637e-006 -4.51334e-007 2.67922e-006 9.93851e-007 -5.42518e-007 16.1538 -4.07667 12.2461 45.2535 26.2658 -1.2969 -23.8908 -26.8599 24.056 -24.8362 -3.01359 -16.1555 0 0 -0 5.06286e-007 -6.64618e-007 1.61895e-007 -3.18055e-015 -3.97569e-015 -0 0 0 -0 0.0149761 -9.24761e-005 -6.59265e-006 -1.32417e-031 2.38542e-015 3.18055e-015 0 0 -0 0.0189917 -0.00119183 -5.69259e-005 3.18055e-015 -6.36111e-015 3.18055e-015 0 0 -0 0.0123184 -0.00326647 -0.000689638 0 7.95139e-016 -0 0 0 -0 5.06286e-007 -6.64618e-007 1.61895e-007 -3.18055e-015 -3.97569e-015 -0 -136.304 -54.6915 -148.304 -169.082 60.8272 167.26 -3.74135 -3.59089 -2.58718 4.22382e-007 -1.54013e-007 -9.4439e-006 136.336 -54.7012 148.324 169.154 60.828 -167.334 3.7566 -3.59493 2.61707 -1.78668e-007 -1.16148e-007 -1.0965e-008 
-1.34879 13.8061 8.00506 3.39813 -0.000266477 -90.009 -0.312236 6.14661 -0.232439 -0.604503 12.2944 -0.434651 -0.604493 12.2944 -0.434662 2.80108 3.73051 -9.18744 1.6336 -36.5962 -6.99812 -20.0025 -2.28888 -11.8925 -6.84127 3.93069 -14.9793 -40.4913 -3.19984 -20.7597 38.7189 -11.2583 -3.73731 9.54166e-015 -3.18055e-015 6.36111e-015 -6.36111e-015 -3.18055e-015 3.18055e-015 -6.36111e-015 -3.18055e-015 -7.95139e-015 9.54166e-015 -3.18055e-015 6.36111e-015 -0.0145819 -8.67883e-005 2.31147e-006 6.36111e-015 3.18055e-015 3.18055e-015 9.54166e-015 -3.18055e-015 6.36111e-015 -0.0187506 -0.00117814 5.81243e-005 1.01658e-006 9.04736e-007 -1.01935e-006 9.54166e-015 -3.18055e-015 6.36111e-015 -0.012288 -0.00325279 0.000674636 -3.18055e-015 -3.18055e-015 1.59028e-015 9.54166e-015 -3.18055e-015 6.36111e-015 -6.36111e-015 -3.18055e-015 3.18055e-015 -6.36111e-015 -3.18055e-015 -7.95139e-015 15.9433 -3.87351 11.7266 45.6191 26.2825 -1.29248 -23.8907 -26.8599 24.0561 -24.4555 -2.25655 -16.1554 6.36111e-015 0 3.18055e-015 3.18055e-015 1.59028e-015 6.36111e-015 9.54166e-015 -7.95139e-016 -3.18055e-015 6.36111e-015 0 3.18055e-015 0.0149677 -9.22245e-005 2.51837e-006 3.18055e-015 -2.38542e-015 -3.18055e-015 6.36111e-015 0 3.18055e-015 0.0190162 -0.00119333 -6.31221e-005 3.18055e-015 -1.03368e-014 3.18055e-015 6.36111e-015 0 3.18055e-015 0.01225 -0.00324304 -0.000678594 -2.20695e-031 3.97569e-015 3.18055e-015 6.36111e-015 0 3.18055e-015 3.18055e-015 1.59028e-015 6.36111e-015 9.54166e-015 -7.95139e-016 -3.18055e-015 -136.3 -54.6937 -148.3 -169.081 60.8285 167.26 -3.74115 -3.59274 -2.58693 1.59028e-015 7.95139e-016 -0 136.332 -54.7033 148.32 169.153 60.8292 -167.334 3.75641 -3.59674 2.61681 1.78659e-007 1.16166e-007 1.07622e-008 
-1.37267 13.6451 8.00507 3.19817 -0.000239668 -90.0086 -0.313837 5.96447 -0.23079 -0.608347 11.9301 -0.432065 -0.608347 11.9301 -0.432083 2.78536 3.71332 -9.14043 1.12572 -36.7498 -7.32595 -20.1987 -2.01064 -11.5705 -6.84126 3.9307 -14.9793 -40.4913 -3.19983 -20.7597 38.456 -10.5849 -3.53917 1.01513e-006 9.07967e-007 -1.01413e-006 -1.27222e-014 0 -7.95139e-015 -1.01513e-006 -9.07967e-007 1.01413e-006 1.01513e-006 9.07967e-007 -1.01413e-006 -0.0146112 -8.95439e-005 1.07117e-006 -6.36111e-015 6.36111e-015 -0 1.01513e-006 9.07967e-007 -1.01413e-006 -0.0187451 -0.00117989 5.97492e-005 0 0 -3.18055e-015 1.01513e-006 9.07967e-007 -1.01413e-006 -0.0122773 -0.00324952 0.000670993 -1.01682e-006 -9.08521e-007 1.01416e-006 1.01513e-006 9.07967e-007 -1.01413e-006 -1.27222e-014 0 -7.95139e-015 -1.01513e-006 -9.07967e-007 1.01413e-006 15.7347 -3.66851 11.2081 45.9849 26.2993 -1.2882 -23.8908 -26.8599 24.056 -24.0752 -1.49977 -16.1603 4.08732e-008 1.1429e-006 2.71434e-006 -7.41879e-009 4.07116e-007 1.21609e-006 3.18055e-015 -4.77083e-015 3.18055e-015 4.08732e-008 1.1429e-006 2.71434e-006 0.0149854 -9.25232e-005 -1.5893e-006 -3.88623e-008 -1.14327e-006 -2.7142e-006 4.08732e-008 1.1429e-006 2.71434e-006 0.0189758 -0.00119122 -6.45621e-005 6.36111e-015 2.38542e-015 3.18055e-015 4.08732e-008 1.1429e-006 2.71434e-006 0.0122746 -0.00324873 -0.000675311 2.64834e-031 2.38542e-015 -6.36111e-015 4.08732e-008 1.1429e-006 2.71434e-006 -7.41879e-009 4.07116e-007 1.21609e-006 3.18055e-015 -4.77083e-015 3.18055e-015 -136.296 -54.6959 -148.297 -169.081 60.8298 167.26 -3.74101 -3.59466 -2.5867 -5.56193e-008 1.03498e-007 -1.72926e-006 136.327 -54.7055 148.316 169.152 60.8305 -167.334 3.75623 -3.59861 2.61655 -1.59253e-007 -6.46847e-008 5.72736e-006 
-1.39651 13.4842 8.00509 2.99818 -0.000213818 -90.0082 -0.315402 5.78238 -0.229154 -0.612131 11.5661 -0.42947 -0.612134 11.5661 -0.429465 2.7698 3.69544 -9.09351 0.61537 -36.9011 -7.65635 -20.3965 -1.73355 -11.2476 -6.84128 3.93069 -14.9793 -40.4913 -3.19983 -20.7597 38.1913 -9.91268 -3.33836 5.29669e-031 -6.36111e-015 4.77083e-015 6.1235e-006 3.35323e-007 -3.71754e-006 -6.36111e-015 3.18055e-015 3.18055e-015 5.29669e-031 -6.36111e-015 4.77083e-015 -0.0146051 -9.17758e-005 7.27016e-007 -6.36111e-015 3.18055e-015 -1.59028e-015 5.29669e-031 -6.36111e-015 4.77083e-015 -0.0187522 -0.00117711 5.52856e-005 -9.54166e-015 -6.36111e-015 -7.95139e-015 5.29669e-031 -6.36111e-015 4.77083e-015 -0.0123295 -0.00326267 0.000674373 7.25583e-007 9.60953e-007 -2.24449e-006 5.29669e-031 -6.36111e-015 4.77083e-015 6.1235e-006 3.35323e-007 -3.71754e-006 -6.36111e-015 3.18055e-015 3.18055e-015 15.528 -3.46169 10.6906 46.3506 26.3161 -1.28404 -23.8907 -26.8599 24.0561 -23.6951 -0.743384 -16.1702 -9.54166e-015 7.95139e-016 -0 3.18055e-015 -7.95139e-016 1.59028e-015 -6.36111e-015 0 -3.18055e-015 -9.54166e-015 7.95139e-016 -0 0.0149935 -9.21049e-005 -2.80297e-006 3.18055e-015 4.77083e-015 -3.18055e-015 -9.54166e-015 7.95139e-016 -0 0.0189908 -0.00119036 -5.08328e-005 8.82781e-032 -7.95139e-016 6.36111e-015 -9.54166e-015 7.95139e-016 -0 0.0122724 -0.00324642 -0.000666919 -6.36111e-015 6.36111e-015 -1.59028e-015 -9.54166e-015 7.95139e-016 -0 3.18055e-015 -7.95139e-016 1.59028e-015 -6.36111e-015 0 -3.18055e-015 -136.292 -54.698 -148.293 -169.08 60.831 167.26 -3.74081 -3.59649 -2.58643 6.43384e-007 5.98431e-007 -1.3466e-008 136.323 -54.7076 148.312 169.152 60.8318 -167.334 3.75605 -3.60048 2.6163 -1.7864e-007 -1.16202e-007 -1.03567e-008 
-1.42033 13.3234 8.00511 2.79823 -0.000188662 -90.0077 -0.316938 5.60064 -0.227555 -0.615841 11.2024 -0.426875 -0.61585 11.2024 -0.426869 2.75413 3.67749 -9.04652 0.102591 -37.0502 -7.9893 -20.5958 -1.45758 -10.9239 -6.84127 3.93069 -14.9793 -40.4913 -3.19984 -20.7597 37.9248 -9.2417 -3.13491 2.68095e-006 1.00347e-006 -5.34292e-007 1.7793e-006 -7.539e-007 -3.65446e-006 2.68095e-006 1.00347e-006 -5.34292e-007 2.68095e-006 1.00347e-006 -5.34292e-007 -0.0145886 -8.93142e-005 1.20282e-006 2.68185e-006 1.00355e-006 -5.34167e-007 2.68095e-006 1.00347e-006 -5.34292e-007 -0.0187158 -0.00117625 6.24335e-005 1.66007e-006 8.76515e-008 4.68401e-007 2.68095e-006 1.00347e-006 -5.34292e-007 -0.0122159 -0.00323374 0.000669846 2.6817e-006 1.00371e-006 -5.34302e-007 2.68095e-006 1.00347e-006 -5.34292e-007 1.7793e-006 -7.539e-007 -3.65446e-006 2.68095e-006 1.00347e-006 -5.34292e-007 15.3233 -3.25302 10.174 46.7163 26.3329 -1.27997 -23.8908 -26.8599 24.056 -23.315 0.0125126 -16.1852 -3.18055e-015 -8.74653e-015 6.36111e-015 -3.18055e-015 -6.36111e-015 3.18055e-015 -3.18055e-015 -9.54166e-015 3.18055e-015 -3.18055e-015 -8.74653e-015 6.36111e-015 0.0150133 -9.06167e-005 2.58523e-006 -6.36111e-015 -2.38542e-015 -0 -3.18055e-015 -8.74653e-015 6.36111e-015 0.0189857 -0.00118863 -5.61095e-005 -6.36111e-015 -3.18055e-015 -0 -3.18055e-015 -8.74653e-015 6.36111e-015 0.0122782 -0.0032509 -0.000669758 -3.18055e-015 -2.38542e-015 1.59028e-015 -3.18055e-015 -8.74653e-015 6.36111e-015 -3.18055e-015 -6.36111e-015 3.18055e-015 -3.18055e-015 -9.54166e-015 3.18055e-015 -136.288 -54.7001 -148.289 -169.08 60.8323 167.259 -3.74062 -3.59838 -2.58615 9.62249e-008 3.30725e-008 -1.7251e-006 136.319 -54.7098 148.308 169.151 60.8331 -167.333 3.75586 -3.60238 2.61606 2.22296e-007 -8.30019e-007 -2.04017e-006 
